<svg width="1366" height="568" viewBox="0 0 1366 568" xmlns="http://www.w3.org/2000/svg" role="img" aria-label="Raghav Gangwar">
  <defs>
  <linearGradient id="bg" x1="0" y1="0" x2="1366" y2="0" gradientUnits="userSpaceOnUse">
    <stop offset="0" stop-color="#f8472f"/>
    <stop offset="0.5" stop-color="#ff6b3d"/>
    <stop offset="1" stop-color="#ff9a53"/>
  </linearGradient>
  <filter id="soft" x="0" y="0" width="1366" height="568" filterUnits="userSpaceOnUse" primitiveUnits="userSpaceOnUse">
    <feGaussianBlur stdDeviation="5"/>
  </filter>
    <clipPath id="rt"><rect x="143.0" y="152.9" height="194.3" width="0">
      <animate attributeName="width" values="0;1088" begin="0.4s" dur="1.0s" fill="freeze" calcMode="spline" keySplines="0.25 0.1 0.25 1"/></rect></clipPath>
    <clipPath id="rs"><rect x="383.0" y="371.6" height="70.4" width="0">
      <animate attributeName="width" values="0;608" begin="1.5s" dur="0.8s" fill="freeze" calcMode="spline" keySplines="0.25 0.1 0.25 1"/></rect></clipPath>
  </defs>
  <rect width="1366" height="568" fill="url(#bg)"/>
  <circle cx="946" cy="496" r="4.5" fill="#ffffff" opacity="0.46"><animateTransform attributeName="transform" type="translate" values="0,0;-26,-17;0,0" dur="16.0s" begin="2.9s" repeatCount="indefinite" calcMode="spline" keySplines="0.45 0 0.55 1;0.45 0 0.55 1"/><animate attributeName="opacity" values="0.46;0.138;0.46;0.276;0.46" dur="5.5s" begin="2.9s" repeatCount="indefinite"/></circle><circle cx="401" cy="116" r="4.5" fill="#ffffff" opacity="0.26"><animateTransform attributeName="transform" type="translate" values="0,0;18,-35;0,0" dur="14.0s" begin="2.4s" repeatCount="indefinite" calcMode="spline" keySplines="0.45 0 0.55 1;0.45 0 0.55 1"/><animate attributeName="opacity" values="0.26;0.078;0.26;0.156;0.26" dur="4.8s" begin="2.4s" repeatCount="indefinite"/></circle><circle cx="1280" cy="181" r="5.3" fill="#ffffff" opacity="0.45"><animateTransform attributeName="transform" type="translate" values="0,0;-42,-33;0,0" dur="8.4s" begin="5.3s" repeatCount="indefinite" calcMode="spline" keySplines="0.45 0 0.55 1;0.45 0 0.55 1"/><animate attributeName="opacity" values="0.45;0.135;0.45;0.270;0.45" dur="5.4s" begin="5.3s" repeatCount="indefinite"/></circle><circle cx="970" cy="354" r="4.5" fill="#ffffff" opacity="0.46"><animateTransform attributeName="transform" type="translate" values="0,0;16,-11;0,0" dur="14.4s" begin="3.0s" repeatCount="indefinite" calcMode="spline" keySplines="0.45 0 0.55 1;0.45 0 0.55 1"/><animate attributeName="opacity" values="0.46;0.138;0.46;0.276;0.46" dur="5.6s" begin="3.0s" repeatCount="indefinite"/></circle><circle cx="956" cy="304" r="4.3" fill="#ffffff" opacity="0.37"><animateTransform attributeName="transform" type="translate" values="0,0;-40,-8;0,0" dur="11.2s" begin="1.4s" repeatCount="indefinite" calcMode="spline" keySplines="0.45 0 0.55 1;0.45 0 0.55 1"/><animate attributeName="opacity" values="0.37;0.111;0.37;0.222;0.37" dur="4.2s" begin="1.4s" repeatCount="indefinite"/></circle><circle cx="163" cy="130" r="4.3" fill="#ffffff" opacity="0.46"><animateTransform attributeName="transform" type="translate" values="0,0;-1,-32;0,0" dur="17.6s" begin="5.1s" repeatCount="indefinite" calcMode="spline" keySplines="0.45 0 0.55 1;0.45 0 0.55 1"/><animate attributeName="opacity" values="0.46;0.138;0.46;0.276;0.46" dur="3.0s" begin="5.1s" repeatCount="indefinite"/></circle><circle cx="449" cy="73" r="4.6" fill="#ffffff" opacity="0.49"><animateTransform attributeName="transform" type="translate" values="0,0;0,13;0,0" dur="8.7s" begin="3.8s" repeatCount="indefinite" calcMode="spline" keySplines="0.45 0 0.55 1;0.45 0 0.55 1"/><animate attributeName="opacity" values="0.49;0.147;0.49;0.294;0.49" dur="6.1s" begin="3.8s" repeatCount="indefinite"/></circle><circle cx="572" cy="364" r="2.9" fill="#ffffff" opacity="0.31"><animateTransform attributeName="transform" type="translate" values="0,0;2,-25;0,0" dur="9.3s" begin="4.2s" repeatCount="indefinite" calcMode="spline" keySplines="0.45 0 0.55 1;0.45 0 0.55 1"/><animate attributeName="opacity" values="0.31;0.093;0.31;0.186;0.31" dur="3.0s" begin="4.2s" repeatCount="indefinite"/></circle><circle cx="972" cy="518" r="3.3" fill="#ffffff" opacity="0.38"><animateTransform attributeName="transform" type="translate" values="0,0;7,25;0,0" dur="9.9s" begin="4.4s" repeatCount="indefinite" calcMode="spline" keySplines="0.45 0 0.55 1;0.45 0 0.55 1"/><animate attributeName="opacity" values="0.38;0.114;0.38;0.228;0.38" dur="3.5s" begin="4.4s" repeatCount="indefinite"/></circle><circle cx="1338" cy="412" r="3.0" fill="#ffffff" opacity="0.34"><animateTransform attributeName="transform" type="translate" values="0,0;-23,-40;0,0" dur="10.7s" begin="5.8s" repeatCount="indefinite" calcMode="spline" keySplines="0.45 0 0.55 1;0.45 0 0.55 1"/><animate attributeName="opacity" values="0.34;0.102;0.34;0.204;0.34" dur="6.2s" begin="5.8s" repeatCount="indefinite"/></circle><circle cx="642" cy="40" r="3.4" fill="#ffffff" opacity="0.33"><animateTransform attributeName="transform" type="translate" values="0,0;27,33;0,0" dur="9.0s" begin="5.9s" repeatCount="indefinite" calcMode="spline" keySplines="0.45 0 0.55 1;0.45 0 0.55 1"/><animate attributeName="opacity" values="0.33;0.099;0.33;0.198;0.33" dur="3.9s" begin="5.9s" repeatCount="indefinite"/></circle><circle cx="548" cy="29" r="6.0" fill="#ffffff" opacity="0.31"><animateTransform attributeName="transform" type="translate" values="0,0;-13,9;0,0" dur="8.7s" begin="0.5s" repeatCount="indefinite" calcMode="spline" keySplines="0.45 0 0.55 1;0.45 0 0.55 1"/><animate attributeName="opacity" values="0.31;0.093;0.31;0.186;0.31" dur="5.3s" begin="0.5s" repeatCount="indefinite"/></circle><circle cx="517" cy="35" r="5.2" fill="#ffffff" opacity="0.32"><animateTransform attributeName="transform" type="translate" values="0,0;8,-24;0,0" dur="17.6s" begin="2.9s" repeatCount="indefinite" calcMode="spline" keySplines="0.45 0 0.55 1;0.45 0 0.55 1"/><animate attributeName="opacity" values="0.32;0.096;0.32;0.192;0.32" dur="5.3s" begin="2.9s" repeatCount="indefinite"/></circle><circle cx="810" cy="207" r="5.3" fill="#ffffff" opacity="0.31"><animateTransform attributeName="transform" type="translate" values="0,0;-21,38;0,0" dur="10.5s" begin="1.1s" repeatCount="indefinite" calcMode="spline" keySplines="0.45 0 0.55 1;0.45 0 0.55 1"/><animate attributeName="opacity" values="0.31;0.093;0.31;0.186;0.31" dur="6.0s" begin="1.1s" repeatCount="indefinite"/></circle><circle cx="1154" cy="221" r="5.6" fill="#ffffff" opacity="0.33"><animateTransform attributeName="transform" type="translate" values="0,0;11,37;0,0" dur="8.8s" begin="0.3s" repeatCount="indefinite" calcMode="spline" keySplines="0.45 0 0.55 1;0.45 0 0.55 1"/><animate attributeName="opacity" values="0.33;0.099;0.33;0.198;0.33" dur="3.4s" begin="0.3s" repeatCount="indefinite"/></circle><circle cx="1069" cy="281" r="3.6" fill="#ffffff" opacity="0.42"><animateTransform attributeName="transform" type="translate" values="0,0;-18,13;0,0" dur="16.2s" begin="3.6s" repeatCount="indefinite" calcMode="spline" keySplines="0.45 0 0.55 1;0.45 0 0.55 1"/><animate attributeName="opacity" values="0.42;0.126;0.42;0.252;0.42" dur="4.2s" begin="3.6s" repeatCount="indefinite"/></circle><circle cx="379" cy="90" r="3.1" fill="#ffffff" opacity="0.35"><animateTransform attributeName="transform" type="translate" values="0,0;33,38;0,0" dur="14.1s" begin="1.7s" repeatCount="indefinite" calcMode="spline" keySplines="0.45 0 0.55 1;0.45 0 0.55 1"/><animate attributeName="opacity" values="0.35;0.105;0.35;0.210;0.35" dur="6.7s" begin="1.7s" repeatCount="indefinite"/></circle><circle cx="437" cy="36" r="2.8" fill="#ffffff" opacity="0.34"><animateTransform attributeName="transform" type="translate" values="0,0;-19,-33;0,0" dur="8.5s" begin="1.7s" repeatCount="indefinite" calcMode="spline" keySplines="0.45 0 0.55 1;0.45 0 0.55 1"/><animate attributeName="opacity" values="0.34;0.102;0.34;0.204;0.34" dur="5.1s" begin="1.7s" repeatCount="indefinite"/></circle><circle cx="289" cy="114" r="4.1" fill="#ffffff" opacity="0.47"><animateTransform attributeName="transform" type="translate" values="0,0;-8,26;0,0" dur="13.8s" begin="0.8s" repeatCount="indefinite" calcMode="spline" keySplines="0.45 0 0.55 1;0.45 0 0.55 1"/><animate attributeName="opacity" values="0.47;0.141;0.47;0.282;0.47" dur="3.1s" begin="0.8s" repeatCount="indefinite"/></circle><circle cx="56" cy="506" r="6.6" fill="#ffffff" opacity="0.42"><animateTransform attributeName="transform" type="translate" values="0,0;-46,-38;0,0" dur="14.0s" begin="0.4s" repeatCount="indefinite" calcMode="spline" keySplines="0.45 0 0.55 1;0.45 0 0.55 1"/><animate attributeName="opacity" values="0.42;0.126;0.42;0.252;0.42" dur="3.3s" begin="0.4s" repeatCount="indefinite"/></circle><circle cx="657" cy="346" r="3.1" fill="#ffffff" opacity="0.24"><animateTransform attributeName="transform" type="translate" values="0,0;7,29;0,0" dur="11.7s" begin="0.3s" repeatCount="indefinite" calcMode="spline" keySplines="0.45 0 0.55 1;0.45 0 0.55 1"/><animate attributeName="opacity" values="0.24;0.072;0.24;0.144;0.24" dur="6.7s" begin="0.3s" repeatCount="indefinite"/></circle><circle cx="285" cy="369" r="4.1" fill="#ffffff" opacity="0.41"><animateTransform attributeName="transform" type="translate" values="0,0;-41,13;0,0" dur="17.4s" begin="0.2s" repeatCount="indefinite" calcMode="spline" keySplines="0.45 0 0.55 1;0.45 0 0.55 1"/><animate attributeName="opacity" values="0.41;0.123;0.41;0.246;0.41" dur="5.0s" begin="0.2s" repeatCount="indefinite"/></circle><circle cx="49" cy="411" r="4.2" fill="#ffffff" opacity="0.22"><animateTransform attributeName="transform" type="translate" values="0,0;-41,-30;0,0" dur="8.9s" begin="0.7s" repeatCount="indefinite" calcMode="spline" keySplines="0.45 0 0.55 1;0.45 0 0.55 1"/><animate attributeName="opacity" values="0.22;0.066;0.22;0.132;0.22" dur="4.0s" begin="0.7s" repeatCount="indefinite"/></circle><circle cx="872" cy="358" r="4.2" fill="#ffffff" opacity="0.43"><animateTransform attributeName="transform" type="translate" values="0,0;24,18;0,0" dur="12.4s" begin="5.0s" repeatCount="indefinite" calcMode="spline" keySplines="0.45 0 0.55 1;0.45 0 0.55 1"/><animate attributeName="opacity" values="0.43;0.129;0.43;0.258;0.43" dur="3.3s" begin="5.0s" repeatCount="indefinite"/></circle><circle cx="1073" cy="50" r="3.9" fill="#ffffff" opacity="0.24"><animateTransform attributeName="transform" type="translate" values="0,0;-48,-11;0,0" dur="17.6s" begin="0.7s" repeatCount="indefinite" calcMode="spline" keySplines="0.45 0 0.55 1;0.45 0 0.55 1"/><animate attributeName="opacity" values="0.24;0.072;0.24;0.144;0.24" dur="6.1s" begin="0.7s" repeatCount="indefinite"/></circle><circle cx="1015" cy="281" r="6.5" fill="#ffffff" opacity="0.32"><animateTransform attributeName="transform" type="translate" values="0,0;-32,38;0,0" dur="10.0s" begin="1.0s" repeatCount="indefinite" calcMode="spline" keySplines="0.45 0 0.55 1;0.45 0 0.55 1"/><animate attributeName="opacity" values="0.32;0.096;0.32;0.192;0.32" dur="6.6s" begin="1.0s" repeatCount="indefinite"/></circle><circle cx="925" cy="530" r="6.5" fill="#ffffff" opacity="0.31"><animateTransform attributeName="transform" type="translate" values="0,0;35,-8;0,0" dur="10.0s" begin="2.6s" repeatCount="indefinite" calcMode="spline" keySplines="0.45 0 0.55 1;0.45 0 0.55 1"/><animate attributeName="opacity" values="0.31;0.093;0.31;0.186;0.31" dur="6.2s" begin="2.6s" repeatCount="indefinite"/></circle><circle cx="430" cy="239" r="4.2" fill="#ffffff" opacity="0.38"><animateTransform attributeName="transform" type="translate" values="0,0;-10,-14;0,0" dur="9.4s" begin="3.0s" repeatCount="indefinite" calcMode="spline" keySplines="0.45 0 0.55 1;0.45 0 0.55 1"/><animate attributeName="opacity" values="0.38;0.114;0.38;0.228;0.38" dur="6.3s" begin="3.0s" repeatCount="indefinite"/></circle>
  <g clip-path="url(#rt)" ><g filter="url(#soft)"><g transform="translate(143.0,310.1) scale(0.07629,-0.07629)"><path d="M78 0V1760H618Q753 1760 822.0 1698.5Q891 1637 914.5 1526.5Q938 1416 938 1267Q938 1123 901.5 1037.0Q865 951 764 918Q847 901 880.5 835.5Q914 770 914 666V0H567V689Q567 766 535.5 784.5Q504 803 434 803V0ZM436 1108H521Q594 1108 594 1267Q594 1370 578.0 1402.0Q562 1434 518 1434H436ZM1028 0 1198 1760H1795L1962 0H1629L1604 284H1392L1370 0ZM1417 565H1577L1500 1460H1484ZM2455 -16Q2078 -16 2078 524V1283Q2078 1776 2510 1776Q2688 1776 2783.0 1704.5Q2878 1633 2914.0 1496.0Q2950 1359 2950 1162H2606V1318Q2606 1375 2590.5 1413.5Q2575 1452 2526 1452Q2465 1452 2445.5 1411.0Q2426 1370 2426 1321V468Q2426 397 2444.5 352.5Q2463 308 2517 308Q2573 308 2591.5 352.5Q2610 397 2610 470V721H2516V1025H2946V0H2805L2745 148Q2653 -16 2455 -16ZM3107 0V1760H3457V1131H3623V1760H3973V0H3623V798H3457V0ZM4103 0 4273 1760H4870L5037 0H4704L4679 284H4467L4445 0ZM4492 565H4652L4575 1460H4559ZM5329 0 5112 1761H5447L5576 563L5691 1761H6026L5809 0ZM7015 -16Q6638 -16 6638 524V1283Q6638 1776 7070 1776Q7248 1776 7343.0 1704.5Q7438 1633 7474.0 1496.0Q7510 1359 7510 1162H7166V1318Q7166 1375 7150.5 1413.5Q7135 1452 7086 1452Q7025 1452 7005.5 1411.0Q6986 1370 6986 1321V468Q6986 397 7004.5 352.5Q7023 308 7077 308Q7133 308 7151.5 352.5Q7170 397 7170 470V721H7076V1025H7506V0H7365L7305 148Q7213 -16 7015 -16ZM7619 0 7789 1760H8386L8553 0H8220L8195 284H7983L7961 0ZM8008 565H8168L8091 1460H8075ZM8683 0V1760H9045L9207 917V1760H9547V0H9203L9027 880V0ZM10088 -16Q9711 -16 9711 524V1283Q9711 1776 10143 1776Q10321 1776 10416.0 1704.5Q10511 1633 10547.0 1496.0Q10583 1359 10583 1162H10239V1318Q10239 1375 10223.5 1413.5Q10208 1452 10159 1452Q10098 1452 10078.5 1411.0Q10059 1370 10059 1321V468Q10059 397 10077.5 352.5Q10096 308 10150 308Q10206 308 10224.5 352.5Q10243 397 10243 470V721H10149V1025H10579V0H10438L10378 148Q10286 -16 10088 -16ZM10878 0 10689 1760H11033L11130 649L11229 1760H11557L11651 649L11745 1760H12093L11901 0H11479L11391 847L11307 0ZM12172 0 12342 1760H12939L13106 0H12773L12748 284H12536L12514 0ZM12561 565H12721L12644 1460H12628ZM13236 0V1760H13776Q13911 1760 13980.0 1698.5Q14049 1637 14072.5 1526.5Q14096 1416 14096 1267Q14096 1123 14059.5 1037.0Q14023 951 13922 918Q14005 901 14038.5 835.5Q14072 770 14072 666V0H13725V689Q13725 766 13693.5 784.5Q13662 803 13592 803V0ZM13594 1108H13679Q13752 1108 13752 1267Q13752 1370 13736.0 1402.0Q13720 1434 13676 1434H13594Z" fill="#5e1606" fill-opacity="0.45"/></g></g><g transform="translate(143.0,299.1) scale(0.07629,-0.07629)"><path d="M78 0V1760H618Q753 1760 822.0 1698.5Q891 1637 914.5 1526.5Q938 1416 938 1267Q938 1123 901.5 1037.0Q865 951 764 918Q847 901 880.5 835.5Q914 770 914 666V0H567V689Q567 766 535.5 784.5Q504 803 434 803V0ZM436 1108H521Q594 1108 594 1267Q594 1370 578.0 1402.0Q562 1434 518 1434H436ZM1028 0 1198 1760H1795L1962 0H1629L1604 284H1392L1370 0ZM1417 565H1577L1500 1460H1484ZM2455 -16Q2078 -16 2078 524V1283Q2078 1776 2510 1776Q2688 1776 2783.0 1704.5Q2878 1633 2914.0 1496.0Q2950 1359 2950 1162H2606V1318Q2606 1375 2590.5 1413.5Q2575 1452 2526 1452Q2465 1452 2445.5 1411.0Q2426 1370 2426 1321V468Q2426 397 2444.5 352.5Q2463 308 2517 308Q2573 308 2591.5 352.5Q2610 397 2610 470V721H2516V1025H2946V0H2805L2745 148Q2653 -16 2455 -16ZM3107 0V1760H3457V1131H3623V1760H3973V0H3623V798H3457V0ZM4103 0 4273 1760H4870L5037 0H4704L4679 284H4467L4445 0ZM4492 565H4652L4575 1460H4559ZM5329 0 5112 1761H5447L5576 563L5691 1761H6026L5809 0ZM7015 -16Q6638 -16 6638 524V1283Q6638 1776 7070 1776Q7248 1776 7343.0 1704.5Q7438 1633 7474.0 1496.0Q7510 1359 7510 1162H7166V1318Q7166 1375 7150.5 1413.5Q7135 1452 7086 1452Q7025 1452 7005.5 1411.0Q6986 1370 6986 1321V468Q6986 397 7004.5 352.5Q7023 308 7077 308Q7133 308 7151.5 352.5Q7170 397 7170 470V721H7076V1025H7506V0H7365L7305 148Q7213 -16 7015 -16ZM7619 0 7789 1760H8386L8553 0H8220L8195 284H7983L7961 0ZM8008 565H8168L8091 1460H8075ZM8683 0V1760H9045L9207 917V1760H9547V0H9203L9027 880V0ZM10088 -16Q9711 -16 9711 524V1283Q9711 1776 10143 1776Q10321 1776 10416.0 1704.5Q10511 1633 10547.0 1496.0Q10583 1359 10583 1162H10239V1318Q10239 1375 10223.5 1413.5Q10208 1452 10159 1452Q10098 1452 10078.5 1411.0Q10059 1370 10059 1321V468Q10059 397 10077.5 352.5Q10096 308 10150 308Q10206 308 10224.5 352.5Q10243 397 10243 470V721H10149V1025H10579V0H10438L10378 148Q10286 -16 10088 -16ZM10878 0 10689 1760H11033L11130 649L11229 1760H11557L11651 649L11745 1760H12093L11901 0H11479L11391 847L11307 0ZM12172 0 12342 1760H12939L13106 0H12773L12748 284H12536L12514 0ZM12561 565H12721L12644 1460H12628ZM13236 0V1760H13776Q13911 1760 13980.0 1698.5Q14049 1637 14072.5 1526.5Q14096 1416 14096 1267Q14096 1123 14059.5 1037.0Q14023 951 13922 918Q14005 901 14038.5 835.5Q14072 770 14072 666V0H13725V689Q13725 766 13693.5 784.5Q13662 803 13592 803V0ZM13594 1108H13679Q13752 1108 13752 1267Q13752 1370 13736.0 1402.0Q13720 1434 13676 1434H13594Z" fill="#ffffff"/></g></g>
  <rect x="143.0" y="152.9" width="70" height="194.3" rx="4" fill="#d6361f" opacity="0">
    <animate attributeName="x" values="143.0;1231.0" begin="0.4s" dur="1.0s" fill="freeze" calcMode="spline" keySplines="0.25 0.1 0.25 1"/>
    <set attributeName="opacity" to="1" begin="0.4s"/>
    <animate attributeName="opacity" values="1;0" begin="1.4s" dur="0.18s" fill="freeze"/></rect>
  <g clip-path="url(#rs)"><g transform="translate(383.0,412.0) scale(0.04344,-0.04344)"><path d="M150 699V0H80V699ZM1109 554Q1184 554 1243.0 519.5Q1302 485 1335.5 421.5Q1369 358 1369 274Q1369 190 1335.5 126.0Q1302 62 1242.5 27.0Q1183 -8 1109 -8Q1031 -8 974.5 27.5Q918 63 892 120V0H823V740H892V425Q919 482 975.5 518.0Q1032 554 1109 554ZM1095 493Q1039 493 992.5 466.0Q946 439 919.0 389.0Q892 339 892 273Q892 207 919.0 157.0Q946 107 992.5 80.0Q1039 53 1095 53Q1153 53 1199.0 79.5Q1245 106 1271.5 156.5Q1298 207 1298 274Q1298 342 1271.5 391.5Q1245 441 1199.0 467.0Q1153 493 1095 493ZM2091 546V0H2021V96Q1997 45 1947.0 18.0Q1897 -9 1835 -9Q1737 -9 1675.0 51.5Q1613 112 1613 227V546H1682V235Q1682 146 1726.5 99.0Q1771 52 1848 52Q1927 52 1974.0 102.0Q2021 152 2021 249V546ZM2355 701Q2355 723 2370.0 737.5Q2385 752 2406 752Q2427 752 2442.0 737.5Q2457 723 2457 701Q2457 679 2442.0 664.0Q2427 649 2406 649Q2385 649 2370.0 664.0Q2355 679 2355 701ZM2441 546V0H2371V546ZM2790 740V0H2720V740ZM3299 554Q3371 554 3429.0 519.0Q3487 484 3514 428V740H3584V0H3514V122Q3489 65 3432.0 28.5Q3375 -8 3298 -8Q3223 -8 3163.5 27.0Q3104 62 3070.5 126.0Q3037 190 3037 274Q3037 358 3071.0 421.5Q3105 485 3164.5 519.5Q3224 554 3299 554ZM3311 493Q3253 493 3207.0 467.0Q3161 441 3134.5 391.5Q3108 342 3108 274Q3108 207 3134.5 156.5Q3161 106 3207.0 79.5Q3253 53 3311 53Q3367 53 3413.5 80.0Q3460 107 3487.0 157.0Q3514 207 3514 273Q3514 339 3487.0 389.0Q3460 439 3413.5 466.0Q3367 493 3311 493ZM4349 487V148Q4349 98 4368.0 79.0Q4387 60 4435 60H4499V0H4424Q4350 0 4314.0 34.5Q4278 69 4278 148V487H4202V546H4278V683H4349V546H4499V487ZM5212 320V0H5143V312Q5143 401 5098.5 448.0Q5054 495 4977 495Q4898 495 4851.0 445.0Q4804 395 4804 298V0H4734V740H4804V453Q4830 502 4880.5 529.0Q4931 556 4994 556Q5056 556 5105.5 530.0Q5155 504 5183.5 450.5Q5212 397 5212 320ZM5471 701Q5471 723 5486.0 737.5Q5501 752 5522 752Q5543 752 5558.0 737.5Q5573 723 5573 701Q5573 679 5558.0 664.0Q5543 649 5522 649Q5501 649 5486.0 664.0Q5471 679 5471 701ZM5557 546V0H5487V546ZM6314 320V0H6245V312Q6245 401 6200.5 448.0Q6156 495 6079 495Q6000 495 5953.0 445.0Q5906 395 5906 298V0H5836V546H5906V453Q5932 503 5981.0 529.5Q6030 556 6092 556Q6190 556 6252.0 495.5Q6314 435 6314 320ZM7034 427V546H7104V-14Q7104 -89 7071.5 -147.0Q7039 -205 6981.0 -236.5Q6923 -268 6849 -268Q6744 -268 6674.5 -218.0Q6605 -168 6588 -82H6657Q6675 -139 6725.5 -173.0Q6776 -207 6849 -207Q6902 -207 6944.0 -184.5Q6986 -162 7010.0 -118.0Q7034 -74 7034 -14V121Q7008 65 6951.5 28.5Q6895 -8 6818 -8Q6743 -8 6683.5 27.0Q6624 62 6590.5 126.0Q6557 190 6557 274Q6557 358 6590.5 421.5Q6624 485 6683.5 519.5Q6743 554 6818 554Q6895 554 6952.0 518.0Q7009 482 7034 427ZM6831 493Q6773 493 6727.0 467.0Q6681 441 6654.5 391.5Q6628 342 6628 274Q6628 207 6654.5 156.5Q6681 106 6727.0 79.5Q6773 53 6831 53Q6887 53 6933.5 80.0Q6980 107 7007.0 157.0Q7034 207 7034 273Q7034 339 7007.0 389.0Q6980 439 6933.5 466.0Q6887 493 6831 493ZM7352 154H7424Q7429 108 7467.5 79.5Q7506 51 7571 51Q7628 51 7660.5 78.0Q7693 105 7693 145Q7693 173 7675.0 191.0Q7657 209 7629.5 219.5Q7602 230 7555 242Q7494 258 7456.0 274.0Q7418 290 7391.5 321.5Q7365 353 7365 406Q7365 446 7389.0 480.0Q7413 514 7457.0 534.0Q7501 554 7557 554Q7645 554 7699.0 509.5Q7753 465 7757 387H7687Q7684 435 7649.5 464.5Q7615 494 7555 494Q7502 494 7469.0 469.0Q7436 444 7436 407Q7436 375 7455.5 354.5Q7475 334 7504.0 322.5Q7533 311 7582 297Q7641 281 7676.0 266.0Q7711 251 7736.0 222.0Q7761 193 7762 145Q7762 101 7738.0 66.5Q7714 32 7671.0 12.0Q7628 -8 7572 -8Q7478 -8 7418.5 35.5Q7359 79 7352 154ZM8499 487V148Q8499 98 8518.0 79.0Q8537 60 8585 60H8649V0H8574Q8500 0 8464.0 34.5Q8428 69 8428 148V487H8352V546H8428V683H8499V546H8649V487ZM9362 320V0H9293V312Q9293 401 9248.5 448.0Q9204 495 9127 495Q9048 495 9001.0 445.0Q8954 395 8954 298V0H8884V740H8954V453Q8980 502 9030.5 529.0Q9081 556 9144 556Q9206 556 9255.5 530.0Q9305 504 9333.5 450.5Q9362 397 9362 320ZM9866 554Q9944 554 10000.5 518.0Q10057 482 10082 426V546H10152V0H10082V121Q10056 65 9999.5 28.5Q9943 -8 9865 -8Q9791 -8 9731.5 27.0Q9672 62 9638.5 126.0Q9605 190 9605 274Q9605 358 9638.5 421.5Q9672 485 9731.5 519.5Q9791 554 9866 554ZM9879 493Q9821 493 9775.0 467.0Q9729 441 9702.5 391.5Q9676 342 9676 274Q9676 207 9702.5 156.5Q9729 106 9775.0 79.5Q9821 53 9879 53Q9935 53 9981.5 80.0Q10028 107 10055.0 157.0Q10082 207 10082 273Q10082 339 10055.0 389.0Q10028 439 9981.5 466.0Q9935 493 9879 493ZM10523 487V148Q10523 98 10542.0 79.0Q10561 60 10609 60H10673V0H10598Q10524 0 10488.0 34.5Q10452 69 10452 148V487H10376V546H10452V683H10523V546H10673V487ZM11278 180H11352Q11357 129 11397.0 90.5Q11437 52 11514 52Q11585 52 11626.5 88.5Q11668 125 11668 181Q11668 226 11645.0 253.5Q11622 281 11588.0 294.5Q11554 308 11494 324Q11424 343 11383.0 361.0Q11342 379 11313.0 417.0Q11284 455 11284 520Q11284 574 11312.0 616.5Q11340 659 11391.0 683.0Q11442 707 11508 707Q11605 707 11664.5 659.5Q11724 612 11733 537H11657Q11650 580 11610.0 613.5Q11570 647 11502 647Q11439 647 11397.0 613.5Q11355 580 11355 522Q11355 478 11378.0 451.0Q11401 424 11435.5 410.0Q11470 396 11529 380Q11597 361 11639.0 342.5Q11681 324 11710.0 286.0Q11739 248 11739 184Q11739 135 11713.0 91.0Q11687 47 11636.0 20.0Q11585 -7 11514 -7Q11445 -7 11392.5 17.0Q11340 41 11310.0 84.0Q11280 127 11278 180ZM12472 320V0H12403V312Q12403 401 12358.5 448.0Q12314 495 12237 495Q12158 495 12111.0 445.0Q12064 395 12064 298V0H11994V740H12064V453Q12090 502 12140.5 529.0Q12191 556 12254 556Q12316 556 12365.5 530.0Q12415 504 12443.5 450.5Q12472 397 12472 320ZM12731 701Q12731 723 12746.0 737.5Q12761 752 12782 752Q12803 752 12818.0 737.5Q12833 723 12833 701Q12833 679 12818.0 664.0Q12803 649 12782 649Q12761 649 12746.0 664.0Q12731 679 12731 701ZM12817 546V0H12747V546ZM13382 554Q13456 554 13515.5 519.5Q13575 485 13608.5 421.5Q13642 358 13642 274Q13642 190 13608.5 126.0Q13575 62 13515.5 27.0Q13456 -8 13382 -8Q13305 -8 13248.0 28.5Q13191 65 13165 120V-258H13096V546H13165V426Q13191 481 13247.5 517.5Q13304 554 13382 554ZM13368 493Q13312 493 13265.5 466.0Q13219 439 13192.0 389.0Q13165 339 13165 273Q13165 207 13192.0 157.0Q13219 107 13265.5 80.0Q13312 53 13368 53Q13426 53 13472.0 79.5Q13518 106 13544.5 156.5Q13571 207 13571 274Q13571 342 13544.5 391.5Q13518 441 13472.0 467.0Q13426 493 13368 493Z" fill="#fff3ec"/></g></g>
  <rect x="383.0" y="371.6" width="46" height="70.4" rx="3" fill="#d6361f" opacity="0">
    <animate attributeName="x" values="383.0;991.0" begin="1.5s" dur="0.8s" fill="freeze" calcMode="spline" keySplines="0.25 0.1 0.25 1"/>
    <set attributeName="opacity" to="1" begin="1.5s"/>
    <animate attributeName="opacity" values="1;0" begin="2.3s" dur="0.18s" fill="freeze"/></rect>
</svg>